<svg width="40" height="41" viewBox="0 0 40 41" fill="none" xmlns="http://www.w3.org/2000/svg">
<circle cx="20" cy="20.5" r="20" fill="white"/>
<circle cx="20" cy="20.5" r="19.5" stroke="#FFC50D" stroke-opacity="0.32"/>
<path d="M30.0505 19.2398L30.0902 19.2711C30.2041 19.3663 30.2773 19.5014 30.2948 19.6488C30.3123 19.7963 30.2728 19.9448 30.1843 20.064L30.1529 20.1119C30.043 20.2388 29.8888 20.3191 29.7218 20.3365C29.5551 20.356 29.387 20.3137 29.2494 20.2176C28.8216 19.9087 28.4615 19.8476 28.1246 19.9203C27.752 20.032 27.4016 20.2074 27.0889 20.4389C26.5439 20.7907 25.9591 21.1673 25.2307 21.349C24.5023 21.5307 23.6219 21.5142 22.5087 21.0847L22.469 21.0682C22.3303 21.0052 22.2202 20.8927 22.1601 20.7527C22.1056 20.6154 22.1056 20.4623 22.1601 20.3249L22.18 20.2803C22.2465 20.1285 22.3698 20.0087 22.5235 19.9467C22.6832 19.8865 22.8594 19.8865 23.019 19.9467C23.8102 20.2556 24.4395 20.2589 24.9714 20.1119C25.4717 19.9564 25.9436 19.721 26.3688 19.4148C27.4936 18.6947 28.4599 18.0736 30.0538 19.2282L30.0505 19.2398ZM20.2425 14.633V25.4288C19.9956 25.4626 19.7467 25.4797 19.4975 25.48C18.0519 25.48 16.6655 24.9058 15.6433 23.8835C14.621 22.8613 14.0468 21.4749 14.0468 20.0293C14.0468 18.5837 14.621 17.1972 15.6433 16.175C16.6655 15.1528 18.0519 14.5785 19.4975 14.5785C19.7467 14.5788 19.9956 14.5959 20.2425 14.6297V14.633ZM19.9848 11.1429C19.9891 11.0601 19.9765 10.9773 19.9478 10.8995C19.9191 10.8217 19.8748 10.7505 19.8177 10.6904C19.7606 10.6302 19.6919 10.5823 19.6157 10.5496C19.5395 10.5169 19.4574 10.5 19.3745 10.5C19.2915 10.5 19.2095 10.5169 19.1333 10.5496C19.0571 10.5823 18.9883 10.6302 18.9312 10.6904C18.8741 10.7505 18.8299 10.8217 18.8012 10.8995C18.7724 10.9773 18.7598 11.0601 18.7641 11.1429V12.7055C18.7598 12.7883 18.7724 12.8711 18.8012 12.9489C18.8299 13.0267 18.8741 13.0978 18.9312 13.158C18.9883 13.2181 19.0571 13.266 19.1333 13.2988C19.2095 13.3315 19.2915 13.3484 19.3745 13.3484C19.4574 13.3484 19.5395 13.3315 19.6157 13.2988C19.6919 13.266 19.7606 13.2181 19.8177 13.158C19.8748 13.0978 19.9191 13.0267 19.9478 12.9489C19.9765 12.8711 19.9891 12.7883 19.9848 12.7055V11.1429ZM15.4739 12.0927C15.3935 11.9529 15.2609 11.8508 15.1052 11.8089C14.9496 11.7669 14.7836 11.7885 14.6439 11.8688C14.5041 11.9492 14.402 12.0818 14.3601 12.2375C14.3181 12.3932 14.3397 12.5591 14.4201 12.6988L15.203 14.0516C15.2862 14.1853 15.418 14.2815 15.5707 14.3199C15.7233 14.3583 15.885 14.336 16.0215 14.2577C16.1581 14.1794 16.2589 14.0511 16.3028 13.8999C16.3467 13.7487 16.3302 13.5864 16.2568 13.4471L15.4739 12.0927ZM12.0449 15.1682C11.9055 15.094 11.7429 15.0767 11.591 15.1199C11.4392 15.1632 11.3101 15.2637 11.2309 15.4003C11.1517 15.5369 11.1286 15.6988 11.1664 15.8521C11.2043 16.0054 11.3001 16.138 11.4337 16.222L12.7881 17.0033C12.9277 17.0841 13.0936 17.1062 13.2494 17.0647C13.4052 17.0232 13.5381 16.9215 13.619 16.782C13.6998 16.6424 13.7219 16.4765 13.6804 16.3207C13.6389 16.1649 13.5372 16.032 13.3976 15.9511L12.0449 15.1682ZM10.6128 19.547C10.4503 19.547 10.2944 19.6115 10.1795 19.7265C10.0646 19.8414 10 19.9972 10 20.1598C10 20.3223 10.0646 20.4782 10.1795 20.5931C10.2944 20.708 10.4503 20.7726 10.6128 20.7726H12.1753C12.2582 20.7769 12.341 20.7643 12.4188 20.7356C12.4966 20.7068 12.5677 20.6626 12.6279 20.6055C12.688 20.5484 12.7359 20.4796 12.7686 20.4034C12.8014 20.3272 12.8183 20.2452 12.8183 20.1622C12.8183 20.0793 12.8014 19.9973 12.7686 19.9211C12.7359 19.8449 12.688 19.7761 12.6279 19.719C12.5677 19.6619 12.4966 19.6177 12.4188 19.5889C12.341 19.5602 12.2582 19.5476 12.1753 19.5519L10.6128 19.547ZM11.5625 24.0579C11.4934 24.0977 11.4327 24.1507 11.384 24.214C11.3353 24.2772 11.2995 24.3495 11.2787 24.4265C11.258 24.5036 11.2526 24.584 11.2629 24.6632C11.2732 24.7423 11.2989 24.8187 11.3387 24.8879C11.3785 24.9571 11.4316 25.0178 11.4948 25.0665C11.5581 25.1151 11.6303 25.1509 11.7074 25.1717C11.7845 25.1925 11.8649 25.1979 11.944 25.1876C12.0232 25.1773 12.0995 25.1515 12.1687 25.1117L13.5215 24.3288C13.661 24.2486 13.763 24.1163 13.805 23.9609C13.847 23.8056 13.8255 23.6399 13.7453 23.5004C13.6652 23.3609 13.5329 23.2589 13.3775 23.217C13.2222 23.175 13.0565 23.1964 12.917 23.2766L11.5625 24.0579ZM14.6381 27.4869C14.5945 27.5562 14.5653 27.6336 14.5523 27.7144C14.5393 27.7953 14.5427 27.8779 14.5623 27.9574C14.5819 28.0369 14.6173 28.1116 14.6665 28.1771C14.7156 28.2426 14.7774 28.2975 14.8483 28.3386C14.9191 28.3797 14.9975 28.4061 15.0787 28.4162C15.16 28.4263 15.2424 28.42 15.3212 28.3975C15.3999 28.3751 15.4733 28.337 15.537 28.2855C15.6007 28.2341 15.6534 28.1703 15.6919 28.098L16.4732 26.7436C16.5443 26.6045 16.5594 26.4435 16.5152 26.2936C16.471 26.1438 16.371 26.0166 16.2357 25.9384C16.1005 25.8602 15.9404 25.8369 15.7885 25.8733C15.6366 25.9097 15.5044 26.0031 15.4194 26.1341L14.6381 27.4869ZM19.0169 28.9206C19.025 29.077 19.0929 29.2243 19.2064 29.3321C19.32 29.4399 19.4706 29.5 19.6272 29.5C19.7838 29.5 19.9344 29.4399 20.0479 29.3321C20.1615 29.2243 20.2294 29.077 20.2375 28.9206V27.3564C20.2294 27.2 20.1615 27.0528 20.0479 26.9449C19.9344 26.8371 19.7838 26.777 19.6272 26.777C19.4706 26.777 19.32 26.8371 19.2064 26.9449C19.0929 27.0528 19.025 27.2 19.0169 27.3564V28.9206ZM30.0538 15.5415L30.0902 15.5696C30.2032 15.6657 30.2757 15.801 30.2932 15.9483C30.3106 16.0957 30.2717 16.2442 30.1843 16.3641L30.1529 16.4037C30.0416 16.5298 29.8876 16.6104 29.7206 16.6299C29.5535 16.6494 29.3851 16.6065 29.2478 16.5094C28.8183 16.2005 28.4582 16.1411 28.1229 16.2138C27.75 16.3247 27.3995 16.5003 27.0873 16.7324C26.5439 17.0842 25.9575 17.4608 25.2274 17.6442C24.4973 17.8275 23.617 17.8093 22.5053 17.3799L22.4641 17.3634C22.3265 17.2994 22.2171 17.1871 22.1568 17.0479C22.0998 16.9076 22.0998 16.7505 22.1568 16.6102L22.1767 16.5656C22.2503 16.4192 22.3775 16.3068 22.5318 16.2517C22.6911 16.1898 22.8679 16.1898 23.0273 16.2517C23.6425 16.5188 24.3283 16.5768 24.9797 16.4169C25.4716 16.26 25.9355 16.0259 26.3539 15.7232H26.3638C27.4854 15.0063 28.4516 14.3886 30.0439 15.5382L30.0538 15.5415ZM30.0538 22.9529L30.0935 22.9826C30.2065 23.0787 30.279 23.214 30.2965 23.3614C30.3139 23.5087 30.275 23.6572 30.1876 23.7771L30.1562 23.8167C30.0462 23.9447 29.8913 24.0256 29.7235 24.043C29.5567 24.0626 29.3887 24.0202 29.2511 23.9241C28.3955 23.3047 27.7926 23.6929 27.0922 24.1438C26.5488 24.4956 25.9624 24.8722 25.2324 25.0555C24.5023 25.2389 23.6236 25.2207 22.5103 24.7913L22.469 24.7747C22.3311 24.7112 22.2217 24.5988 22.1618 24.4593C22.1056 24.3193 22.1056 24.1631 22.1618 24.0232L22.18 23.9836C22.2535 23.8344 22.3819 23.7195 22.5384 23.6631C22.6979 23.602 22.8744 23.602 23.0339 23.6631C23.8251 23.972 24.4544 23.9753 24.9863 23.8283C25.4866 23.6729 25.9585 23.4375 26.3836 23.1313C27.5085 22.4094 28.4747 21.79 30.0687 22.9446L30.0538 22.9529Z" fill="url(#paint0_linear_35_755)"/>
<defs>
<linearGradient id="paint0_linear_35_755" x1="20.1503" y1="10.5" x2="20.1503" y2="29.5" gradientUnits="userSpaceOnUse">
<stop stop-color="#6BC02D"/>
<stop offset="1" stop-color="#FFFA27"/>
</linearGradient>
</defs>
</svg>
