<svg width="40" height="41" viewBox="0 0 40 41" fill="none" xmlns="http://www.w3.org/2000/svg">
<circle cx="20" cy="20.5" r="20" fill="white"/>
<circle cx="20" cy="20.5" r="19.5" stroke="#FFC50D" stroke-opacity="0.32"/>
<path fill-rule="evenodd" clip-rule="evenodd" d="M24.5139 18.0981L24.4485 15.6546L20.4334 16.8142C20.0716 16.8927 19.7163 16.9319 19.3654 16.9319C18.9905 16.9341 18.6221 16.8927 18.2581 16.8142L14.4218 15.6415V18.1198C14.5308 19.4059 18.2232 19.8004 19.3567 19.8549C20.2656 19.8985 23.8534 19.4255 24.3242 18.6844C24.4267 18.5231 24.4899 18.3269 24.5139 18.0981ZM6.95404 28.9945H9.69831C9.49559 28.9422 9.34301 28.7547 9.34301 28.5367V16.3957C9.34301 16.1363 9.55663 15.9227 9.81601 15.9227H11.9347C11.8671 16.1646 11.8279 16.4109 11.8235 16.6638H10.1539V28.4016H29.3768V16.6638H27.7573C27.7529 16.4109 27.7159 16.1646 27.6483 15.9227H29.6471C29.9065 15.9227 30.1201 16.1363 30.1201 16.3957V28.5346C30.1201 28.7547 29.9697 28.94 29.7648 28.9923H32.6333C32.9385 28.9923 33.187 29.2408 33.187 29.5459C33.187 29.8511 32.9385 30.0996 32.6333 30.0996H6.95404C6.64888 30.0996 6.40039 29.8511 6.40039 29.5459C6.40039 29.243 6.64888 28.9945 6.95404 28.9945ZM12.3162 26.3091C12.1396 26.3091 11.9957 26.1652 11.9957 25.9886C11.9957 25.8121 12.1396 25.6682 12.3162 25.6682H24.8234C25 25.6682 25.1438 25.8121 25.1438 25.9886C25.1438 26.1652 25 26.3091 24.8234 26.3091H12.3162ZM12.3162 24.3974C12.1396 24.3974 11.9957 24.2536 11.9957 24.077C11.9957 23.9005 12.1396 23.7566 12.3162 23.7566H21.8917C22.0682 23.7566 22.2121 23.9005 22.2121 24.077C22.2121 24.2536 22.0682 24.3974 21.8917 24.3974H12.3162ZM12.3162 22.4858C12.1396 22.4858 11.9957 22.342 11.9957 22.1654C11.9957 21.9889 12.1396 21.845 12.3162 21.845H24.9237C25.1002 21.845 25.2441 21.9889 25.2441 22.1654C25.2441 22.342 25.1002 22.4858 24.9237 22.4858H12.3162ZM19.0144 29.2016H20.5708C20.7168 29.2016 20.8367 29.3214 20.8367 29.4675C20.8367 29.6135 20.7168 29.7334 20.5708 29.7334H19.0144C18.8684 29.7334 18.7485 29.6135 18.7485 29.4675C18.7485 29.3193 18.8684 29.2016 19.0144 29.2016ZM26.1421 13.8955V16.8818H26.2359C26.2991 16.8818 26.3536 16.9341 26.3536 16.9995V17.8016C26.3536 17.8648 26.3012 17.9193 26.2359 17.9193H26.1399V18.2005C26.2598 18.2223 26.3514 18.3291 26.3514 18.4555C26.3514 18.5972 26.2337 18.7149 26.092 18.7149H25.6277C25.486 18.7149 25.3683 18.5994 25.3683 18.4555C25.3683 18.3291 25.4599 18.2245 25.5798 18.2005V17.9193H25.486C25.4228 17.9193 25.3683 17.867 25.3683 17.8016V16.9995C25.3683 16.9341 25.4206 16.8818 25.486 16.8818H25.5819V14.0699L20.695 15.5892C19.81 15.8006 18.9251 15.8137 18.0401 15.5892L12.6475 13.9784L12.1592 13.8323C11.5511 13.5838 11.7037 13.0019 12.2682 12.8667L18.3692 11.0445C18.9992 10.8657 19.6269 10.8374 20.2569 11.0445L26.2468 12.8449C26.8985 13.004 27.0271 13.6056 26.2686 13.8541L26.1421 13.8955Z" fill="url(#paint0_linear_2_316)"/>
<defs>
<linearGradient id="paint0_linear_2_316" x1="27.0005" y1="22.5002" x2="-0.49951" y2="16.0002" gradientUnits="userSpaceOnUse">
<stop stop-color="#3DAE30"/>
<stop offset="1" stop-color="#FFFA27"/>
</linearGradient>
</defs>
</svg>
