<svg width="40" height="41" viewBox="0 0 40 41" fill="none" xmlns="http://www.w3.org/2000/svg">
<circle cx="20" cy="20.5" r="20" fill="white"/>
<circle cx="20" cy="20.5" r="19.5" stroke="#FFC50D" stroke-opacity="0.32"/>
<path fill-rule="evenodd" clip-rule="evenodd" d="M10 22.3804H13.8324L13.6785 29.0157H10V22.3804ZM22.4865 15.6216V15.7804C22.7639 15.3731 23.0895 15.0508 23.4631 14.7942C24.0644 14.3821 24.7844 14.1464 25.6374 13.9957C25.7737 13.9716 25.9052 14.063 25.9293 14.2009C25.9533 14.3372 25.8619 14.4687 25.724 14.4927C24.9383 14.6307 24.2809 14.8439 23.7469 15.2111C23.3156 15.5078 22.958 15.907 22.6677 16.4554C24.7154 16.6607 25.9261 16.4603 26.8064 15.8205C27.6787 15.1855 28.2672 14.0887 29.0369 12.5092C28.8108 12.522 28.5751 12.5333 28.3345 12.5445C26.7839 12.6166 25.0842 12.6952 24.0227 13.6285C23.7517 13.8674 23.4855 14.1528 23.2274 14.4895C22.9788 14.8135 22.7319 15.1903 22.4865 15.6216ZM21.7249 14.3324C21.6383 14.2169 21.5421 14.1255 21.4362 14.0502C21.2278 13.9059 20.9712 13.8209 20.665 13.7535C20.5287 13.7247 20.4421 13.59 20.4725 13.4537C20.5014 13.3174 20.6361 13.2308 20.7724 13.2613C21.1364 13.3414 21.4491 13.4473 21.7201 13.6333C21.7008 13.5723 21.6784 13.5114 21.6543 13.4521C21.526 13.1362 21.3368 12.8475 21.0771 12.6198C20.7756 12.3553 20.3907 12.3072 20.038 12.2623L20.03 12.2607L18.1811 12.1468L18.659 13.1346C18.9941 13.7343 19.4463 14.0678 20.0027 14.2298C20.4918 14.3709 21.0706 14.3869 21.7249 14.3324ZM21.9221 14.9321C21.1412 15.0075 20.4421 14.9963 19.8327 14.8199C19.1176 14.613 18.5403 14.1865 18.117 13.4232C18.1138 13.4184 18.1106 13.412 18.109 13.4072L17.4002 11.9416C17.3264 11.7892 17.3906 11.6048 17.5429 11.5311C17.591 11.507 17.6439 11.4974 17.6952 11.5006L20.07 11.6465C20.0829 11.6465 20.0957 11.6481 20.1085 11.6513L20.1165 11.6529C20.5607 11.7091 21.045 11.77 21.4843 12.1564C21.8195 12.4515 22.0632 12.8203 22.2252 13.2212C22.4032 13.6605 22.4833 14.1368 22.4833 14.5954C22.4833 14.629 22.4785 14.6627 22.4673 14.6932C22.5876 14.5136 22.7078 14.3436 22.8313 14.1833C23.1151 13.8145 23.4005 13.505 23.6908 13.25C24.8838 12.2013 26.6765 12.1179 28.3137 12.041C28.6921 12.0233 29.0609 12.0057 29.4329 11.9752C29.4762 11.972 29.5211 11.9784 29.5628 11.9993C29.6879 12.0602 29.7408 12.2093 29.6799 12.3344C28.7803 14.1913 28.1453 15.4645 27.1014 16.2229C26.0848 16.9638 24.7234 17.1834 22.4272 16.9333V18.9505C23.3877 17.6132 24.3258 17.5907 25.8571 17.5539C26.1858 17.5458 26.5434 17.5378 26.9507 17.5122C26.9924 17.509 27.0341 17.517 27.0742 17.5362C27.1993 17.5971 27.2522 17.7463 27.1912 17.8713C26.5643 19.1654 26.1602 19.9671 25.4691 20.4209C24.8068 20.8555 23.9345 20.9357 22.4272 20.7721V22.1591L25.0345 24.8675L26.5947 24.1395C28.0379 23.7017 29.0208 25.2234 27.9417 26.2401C25.8331 27.6993 23.6796 28.8907 21.4811 29.8432C19.8792 30.7668 18.3014 30.6978 16.7444 29.7325L14.4401 28.4754L14.5684 22.9689L17.0458 23.0266C17.963 23.2126 18.8738 23.6937 19.783 24.271L21.9253 22.1607V20.8491C19.8584 21.0736 18.6028 20.8843 17.6536 20.2237C16.6786 19.5454 16.0693 18.4005 15.2515 16.7104C15.1906 16.5853 15.2435 16.4346 15.3686 16.3753C15.4102 16.356 15.4535 16.348 15.4968 16.3512C15.8336 16.3769 16.1751 16.3913 16.5279 16.4057C18.0416 16.4651 19.7477 16.5324 20.8237 17.4801C21.3272 17.9227 21.6816 18.2915 21.9253 18.6988V14.9321H21.9221ZM21.3689 20.3953C21.0241 19.9431 20.6617 19.6031 20.2753 19.3386C19.8007 19.013 19.2827 18.795 18.7151 18.6154C18.582 18.5737 18.5082 18.4326 18.5499 18.2995C18.5916 18.1664 18.7327 18.0926 18.8658 18.1343C19.4751 18.3267 20.0348 18.5625 20.5575 18.9216C21.0113 19.2327 21.4346 19.6352 21.8307 20.174C21.8018 19.7314 21.7169 19.3867 21.5581 19.0788C21.3513 18.6763 21.0065 18.3139 20.487 17.8553C19.5425 17.0247 17.9326 16.9622 16.5038 16.906C16.2938 16.898 16.0869 16.89 15.8881 16.8788C16.5792 18.2834 17.1324 19.2504 17.9358 19.81C18.7039 20.3424 19.7301 20.5268 21.3689 20.3953ZM22.6293 19.555C22.8169 19.3883 23.0301 19.2456 23.2562 19.1253C23.7774 18.8479 24.3755 18.6843 24.9287 18.5865C25.065 18.5625 25.1965 18.6539 25.2205 18.7918C25.2446 18.9281 25.1532 19.0595 25.0153 19.0836C24.507 19.1734 23.9602 19.3225 23.4919 19.5711C23.1504 19.7523 22.8505 19.988 22.6421 20.2926C23.9233 20.4209 24.6641 20.352 25.1901 20.0056C25.7048 19.6673 26.0624 19.0323 26.5498 18.0381C26.3109 18.0477 26.0816 18.0525 25.8651 18.059C24.3979 18.0926 23.5384 18.1135 22.6293 19.555ZM22.1706 22.7139L20.3314 24.5259L22.0841 24.566C22.9532 24.6382 23.3893 25.5313 22.5298 26.0925C21.8435 26.572 20.9536 26.5223 20.0444 26.4197C19.4158 26.3748 19.3693 27.2198 20.0251 27.2375C20.2528 27.2599 20.5014 27.2134 20.7179 27.2182C21.8564 27.2439 22.7992 27.0482 23.3941 26.1615L23.6988 25.4944L24.4925 25.124L22.1706 22.7139Z" fill="url(#paint0_linear_2_654)"/>
<defs>
<linearGradient id="paint0_linear_2_654" x1="30" y1="26" x2="10" y2="14" gradientUnits="userSpaceOnUse">
<stop stop-color="#3DAE30"/>
<stop offset="1" stop-color="#FFFA27"/>
</linearGradient>
</defs>
</svg>
