<svg width="40" height="41" viewBox="0 0 40 41" fill="none" xmlns="http://www.w3.org/2000/svg">
<circle cx="20" cy="20.5" r="20" fill="white"/>
<circle cx="20" cy="20.5" r="19.5" stroke="#FFC50D" stroke-opacity="0.32"/>
<path fill-rule="evenodd" clip-rule="evenodd" d="M19.5 12.7099C23.5264 12.7099 26.7901 15.974 26.7901 20C26.7901 24.026 23.5264 27.2901 19.5 27.2901C15.474 27.2901 12.2099 24.026 12.2099 20C12.2099 15.974 15.474 12.7099 19.5 12.7099ZM19.5 10.5C22.1229 10.5 24.4983 11.5636 26.2175 13.2825C27.9364 15.0017 29 17.3767 29 20C29 22.6233 27.9364 24.9986 26.2175 26.7175C24.4986 28.4364 22.1233 29.5 19.5 29.5C16.8767 29.5 14.5017 28.4364 12.7825 26.7175C11.0636 24.9983 10 22.6229 10 20C10 17.3767 11.0636 15.0017 12.7825 13.2825C14.5017 11.5636 16.8767 10.5 19.5 10.5ZM25.5592 13.9408C24.0084 12.3904 21.8661 11.4311 19.5 11.4311C17.1335 11.4311 14.9912 12.3904 13.4408 13.9408C11.8904 15.4912 10.9311 17.6335 10.9311 20C10.9311 22.3661 11.8904 24.5084 13.4408 26.0592C14.9912 27.6096 17.1335 28.5689 19.5 28.5689C21.8665 28.5689 24.0088 27.6096 25.5592 26.0592C27.1096 24.5088 28.0689 22.3665 28.0689 20C28.0689 17.6335 27.1096 15.4912 25.5592 13.9408ZM20.6188 18.6184C20.597 18.3698 20.4971 18.1783 20.3197 18.0391C20.1969 17.943 20.0366 17.8799 19.8403 17.8506V19.2923L20.198 19.3732C20.5383 19.4478 20.8404 19.5458 21.1031 19.6694C21.3644 19.7929 21.5844 19.9414 21.7633 20.1124C21.9422 20.2817 22.078 20.4795 22.1696 20.7014C22.2617 20.9244 22.3092 21.1745 22.3121 21.4495C22.3092 21.8863 22.1986 22.26 21.9815 22.5732C21.7633 22.8853 21.4497 23.1257 21.0415 23.292C20.7009 23.4311 20.3001 23.5117 19.8403 23.5339V24.3158H19.2863V23.5336C18.825 23.5098 18.4149 23.4259 18.0568 23.2808C17.6263 23.1083 17.2924 22.8455 17.0549 22.4926C16.8159 22.1397 16.6942 21.6933 16.6875 21.1537H18.2862C18.2988 21.3753 18.3589 21.5619 18.4632 21.7093C18.5693 21.8581 18.7151 21.9705 18.8999 22.0462C19.0176 22.0952 19.1463 22.1282 19.2863 22.146V20.6245L18.7908 20.5095C18.193 20.3722 17.7228 20.1503 17.3777 19.8434C17.0341 19.5365 16.8634 19.1216 16.8649 18.5976C16.8634 18.1705 16.9788 17.7953 17.21 17.474C17.4412 17.153 17.7607 16.9029 18.1707 16.7225C18.5051 16.5763 18.8766 16.4895 19.2863 16.4624V15.6842H19.8403V16.4612C20.263 16.4869 20.6378 16.5748 20.964 16.724C21.3596 16.9058 21.665 17.1593 21.8835 17.4851C22.1021 17.8113 22.2127 18.1879 22.2175 18.6184H20.6188ZM19.2863 17.8506C19.1898 17.8647 19.1033 17.8863 19.0269 17.9156C18.8829 17.9727 18.7753 18.0503 18.704 18.1468C18.6313 18.2447 18.5949 18.3572 18.5916 18.4822C18.5882 18.5869 18.609 18.6771 18.655 18.7561C18.7007 18.8351 18.7689 18.9034 18.8573 18.9632C18.9463 19.0237 19.0539 19.0756 19.1786 19.1201C19.2135 19.1324 19.2495 19.1443 19.2863 19.1554V17.8506ZM19.8403 22.142C19.9431 22.1267 20.037 22.103 20.122 22.07C20.28 22.0098 20.4021 21.926 20.4875 21.8184C20.5732 21.7093 20.6174 21.5857 20.6188 21.4465C20.6174 21.3166 20.5762 21.2046 20.4971 21.1111C20.4181 21.0175 20.2975 20.937 20.1346 20.8687C20.0488 20.8324 19.9505 20.7975 19.8403 20.7641V22.142Z" fill="url(#paint0_linear_2_655)"/>
<defs>
<linearGradient id="paint0_linear_2_655" x1="29" y1="24.5" x2="8" y2="19" gradientUnits="userSpaceOnUse">
<stop stop-color="#3DAE30"/>
<stop offset="1" stop-color="#FFFA27"/>
</linearGradient>
</defs>
</svg>
